{"title":"Dracula Untold 2014 DVDrip English Klam","uid":11634736,"size":922678979,"categoryP":"video","categoryS":"movies","magnet":"?xt=urn:btih:39a36b5251e6f85ba0b1606bbd892421d336e829&amp;dn=Dracula+Untold+2014+DVDrip+English+Klam&amp;tr=udp%3A%2F%2Ftracker.openbittorrent.com%3A80&amp;tr=udp%3A%2F%2Fopen.demonii.com%3A1337&amp;tr=udp%3A%2F%2Ftracker.coppersurfer.tk%3A6969&amp;tr=udp%3A%2F%2Fexodus.desync.com%3A6969","seeders":4,"leechers":0,"uploader":"Klambake","files":-1,"time":1417717853,"description":"With: Luke Evans, Dominic Cooper and Samantha Barks\n\nDe vijftiende eeuw. De jonge prins Vlad Tepes (Luke Evans) leidt samen met zijn gezin een gelukkig leven en heerst over een klein koninkrijk. Wanneer de door hem gevestigde vrede wordt bedreigd door een moordlustige sultan reist Vlad af naar de Broken Tooth berg, waar hij een oeroude tovenaar tegenkomt. De twee sluiten een deal, de prins krijgt de kracht en snelheid om zijn vijanden te vernietigen, maar zal daardoor een onstilbare dorst naar menselijk bloed hebben. Hij wordt daarbij de eerste vampier die de wereld ooit gezien heeft: Dracula.\n\nAs his kingdom is being threatened by the Turks, young prince Vlad Tepes must become a monster feared by his own people in order to obtain the power needed to protect his own family, and the families of his kingdom.\n &lt;a href=&quot;\nhttp://www.imdb.com/title/tt0829150&quot; rel=&quot;nofollow&quot; target=&quot;_NEW&quot;&gt;\nhttp://www.imdb.com/title/tt0829150&lt;/a&gt;\t\n\n--------------------- Dutch Friends 4ever ---------------------\n---------------------------------------------------------------\n- Bezoek ook eens mijn vrienden op: &lt;a href=&quot; http://www.Film-Test.nl&quot; rel=&quot;nofollow&quot; target=&quot;_NEW&quot;&gt; http://www.Film-Test.nl&lt;/a&gt; --\n----- voor mijn Nederlandse Sync. ondertitels ---- en meer ----\n------- http://www.Film-Test.nl ---- Over Films en meer -------\n---------------------------------------------------------------\n &lt;a href=&quot;\nhttp://i.imgur.com/B9paDhg.jpg&quot; rel=&quot;nofollow&quot; target=&quot;_NEW&quot;&gt;\nhttp://i.imgur.com/B9paDhg.jpg&lt;/a&gt; &lt;a href=&quot;\nhttp://i.imgur.com/VqW44EY.jpg&quot; rel=&quot;nofollow&quot; target=&quot;_NEW&quot;&gt;\nhttp://i.imgur.com/VqW44EY.jpg&lt;/a&gt; &lt;a href=&quot;\nhttp://i.imgur.com/J2ZlLUa.jpg&quot; rel=&quot;nofollow&quot; target=&quot;_NEW&quot;&gt;\nhttp://i.imgur.com/J2ZlLUa.jpg&lt;/a&gt;\n\nGeneral:\n\nComplete name                            : Dracula UntoldDracula Untold.avi\nFormat                                   : AVI\nFormat/Info                              : Audio Video Interleave\nFile size                                : 878 MiB\nDuration                                 : 1h 32mn\nOverall bit rate                         : 1 331 Kbps\n\nVideo:\n\nFormat                                   : MPEG-4 Visual\nFormat profile                           : Simple@L3\nFormat settings, BVOP                    : No\nFormat settings, QPel                    : No\nFormat settings, GMC                     : No warppoints\nFormat settings, Matrix                  : Default (H.263)\nCodec ID                                 : XVID\nCodec ID/Hint                            : XviD\nDuration                                 : 1h 32mn\nSource duration                          : 1h 32mn\nBit rate                                 : 1 129 Kbps\nWidth                                    : 652 pixels\nHeight                                   : 352 pixels\nDisplay aspect ratio                     : 1.85:1\nFrame rate                               : 23.976 fps\nColor space                              : YUV\nChroma subsampling                       : 4:2:0\nBit depth                                : 8 bits\nScan type                                : Progressive\nCompression mode                         : Lossy\nBits/(Pixel*Frame)                       : 0.205\nStream size                              : 744 MiB (85%)\nWriting library                          : XviD 1.1.2 (UTC 2006-11-01)\n\nAudio:\n\nFormat                                   : AC-3\nFormat/Info                              : Audio Coding 3\nMode extension                           : CM (complete main)\nFormat settings, Endianness              : Big\nCodec ID                                 : 2000\nDuration                                 : 1h 32mn\nBit rate mode                            : Constant\nBit rate                                 : 192 Kbps\nChannel(s)                               : 2 channels\nChannel positions                        : Front: L R\nSampling rate                            : 48.0 KHz\nBit depth                                : 16 bits\nCompression mode                         : Lossy\nStream size                              : 127 MiB (14%)\nAlignment                                : Aligned on interleaves\nInterleave, duration                     : 32 ms (0.77 video frame)","torrent":{"xt":"urn:btih:39a36b5251e6f85ba0b1606bbd892421d336e829","amp;dn":"Dracula+Untold+2014+DVDrip+English+Klam","amp;tr":["udp%3A%2F%2Ftracker.openbittorrent.com%3A80","udp%3A%2F%2Fopen.demonii.com%3A1337","udp%3A%2F%2Ftracker.coppersurfer.tk%3A6969","udp%3A%2F%2Fexodus.desync.com%3A6969"],"infoHash":"39a36b5251e6f85ba0b1606bbd892421d336e829","infoHashBuffer":{"type":"Buffer","data":[57,163,107,82,81,230,248,91,160,177,96,107,189,137,36,33,211,54,232,41]},"announce":[],"urlList":[]}}